<svg width="42" height="42" viewBox="0 0 42 42" fill="none" xmlns="http://www.w3.org/2000/svg">
<circle cx="21" cy="21" r="21" fill="#4164FF"/>
<path fill-rule="evenodd" clip-rule="evenodd" d="M12 15C10.8954 15 10 15.8954 10 17V30C10 31.1046 10.8954 32 12 32H31C32.1046 32 33 31.1046 33 30V17C33 15.8954 32.1046 15 31 15H12ZM18 19V28L26 23L18 19Z" fill="white"/>
<path d="M17 15V12.5C17 12 17.3 11 18.5 11C19.7 11 22.6667 11 24 11C24.5 11.1667 25.5 11.7 25.5 12.5C25.5 13.3 25.5 14.5 25.5 15" stroke="white" stroke-width="2"/>
</svg>
