<svg width="42" height="42" viewBox="0 0 42 42" fill="none" xmlns="http://www.w3.org/2000/svg">
<circle cx="21" cy="21" r="21" fill="#F8F9FB"/>
<path d="M24 21.5H26L26.5 22.5V28C26.5 28.6667 26.9 30 28.5 30C30.1 30 30.5 28.6667 30.5 28V19M26.5 12.5L28.5 14.75M28.5 14.75L30.5 17V19M28.5 14.75C27.8333 15.1667 26.5 16.3 26.5 17.5C26.5 18.7 29.1667 19 30.5 19" stroke="#626367" stroke-width="2"/>
<path fill-rule="evenodd" clip-rule="evenodd" d="M14 30V13.5C14 12.6667 14.4 11 16 11H22C22.6667 11 24 11.5 24 13.5V30H14ZM17 13C16.4477 13 16 13.4477 16 14V18C16 18.5523 16.4477 19 17 19H21C21.5523 19 22 18.5523 22 18V14C22 13.4477 21.5523 13 21 13H17Z" fill="#626367"/>
</svg>
