<svg width="55" height="54" viewBox="0 0 55 54" fill="none" xmlns="http://www.w3.org/2000/svg">
<circle cx="27" cy="27" r="27" fill="url(#paint0_linear_10_31)"/>
<mask id="mask0_10_31" style="mask-type:alpha" maskUnits="userSpaceOnUse" x="1" y="0" width="54" height="54">
<circle cx="28" cy="27" r="27" fill="url(#paint1_linear_10_31)"/>
</mask>
<g mask="url(#mask0_10_31)">
<path d="M26.5 15.5L6 26L28 36.5L48 26L26.5 15.5Z" fill="#A0E8F6"/>
<path d="M27.5 39L4 28L4.5 29L24.5 54.5H29.5L49 29.5V28L27.5 39Z" fill="#BFE6FD"/>
<path d="M5.5 26L28 -9L49 25.5" stroke="#BFE6FD" stroke-width="3" stroke-linecap="round" stroke-linejoin="round"/>
<path d="M4 30L23 54" stroke="#6B8CD1" stroke-width="2" stroke-linecap="round" stroke-linejoin="round"/>
<path d="M50 30L31 54" stroke="#6B8CD1" stroke-width="2" stroke-linecap="round" stroke-linejoin="round"/>
<path d="M49 26L27 15.5L6 26" stroke="#BFE6FD"/>
<path d="M5.5 27L27.5 37.5L49.5 26.5" stroke="#6B8CD1" stroke-width="3" stroke-linecap="round" stroke-linejoin="round"/>
</g>
<defs>
<linearGradient id="paint0_linear_10_31" x1="27" y1="0" x2="27" y2="54" gradientUnits="userSpaceOnUse">
<stop offset="0.333333" stop-color="#9CD8FA"/>
<stop offset="0.697917" stop-color="#7BA1EA"/>
</linearGradient>
<linearGradient id="paint1_linear_10_31" x1="28" y1="0" x2="28" y2="54" gradientUnits="userSpaceOnUse">
<stop offset="0.333333" stop-color="#9CD8FA"/>
<stop offset="0.697917" stop-color="#7BA1EA"/>
</linearGradient>
</defs>
</svg>
