<svg width="42" height="42" viewBox="0 0 42 42" fill="none" xmlns="http://www.w3.org/2000/svg">
<circle cx="21" cy="21" r="21" fill="#F8F9FB"/>
<path fill-rule="evenodd" clip-rule="evenodd" d="M21 33C27.6274 33 33 27.6274 33 21C33 14.3726 27.6274 9 21 9C14.3726 9 9 14.3726 9 21C9 27.6274 14.3726 33 21 33ZM23.1129 15.7855C23.7493 16.2031 24.1122 16.7898 24.2017 17.5455H25.9915C25.9666 16.7749 25.728 16.0863 25.2756 15.4798C24.8281 14.8732 24.2216 14.396 23.456 14.0479C23.0081 13.8414 22.5228 13.6953 22 13.6097V12H20V13.5643C19.3485 13.6384 18.743 13.8021 18.1836 14.0554C17.3981 14.4084 16.7717 14.9055 16.3043 15.5469C15.842 16.1832 15.6108 16.929 15.6108 17.7841C15.6108 18.8132 15.9588 19.646 16.6548 20.2823C17.3509 20.9187 18.2955 21.4084 19.4886 21.7514L21.3679 22.2884C21.9048 22.4375 22.4045 22.6115 22.8668 22.8104C23.3292 23.0092 23.7021 23.2678 23.9854 23.5859C24.2688 23.9041 24.4105 24.3168 24.4105 24.8239C24.4105 25.3807 24.2464 25.8679 23.9183 26.2855C23.5902 26.6982 23.1452 27.0213 22.5835 27.255C22.0217 27.4837 21.3878 27.598 20.6818 27.598C20.0753 27.598 19.5085 27.5085 18.9815 27.3295C18.4595 27.1456 18.027 26.8672 17.6839 26.4943C17.3459 26.1165 17.152 25.6392 17.1023 25.0625H15.1932C15.2528 25.8977 15.5089 26.631 15.9613 27.2624C16.4187 27.8938 17.0451 28.386 17.8406 28.739C18.4697 29.0165 19.1896 29.1849 20 29.2442V30H22V29.175C22.6213 29.0808 23.1787 28.9156 23.6722 28.6793C24.4975 28.2866 25.1239 27.7571 25.5515 27.0909C25.984 26.4247 26.2003 25.679 26.2003 24.8537C26.2003 24.1378 26.0536 23.5337 25.7603 23.0415C25.467 22.5494 25.0941 22.1467 24.6417 21.8335C24.1942 21.5153 23.7244 21.2642 23.2322 21.0803C22.745 20.8963 22.3026 20.7521 21.9048 20.6477L20.3537 20.2301C20.0703 20.1555 19.7596 20.0586 19.4215 19.9393C19.0835 19.815 18.7603 19.6584 18.4521 19.4695C18.1438 19.2756 17.8903 19.0344 17.6914 18.7461C17.4975 18.4528 17.4006 18.1023 17.4006 17.6946C17.4006 17.2074 17.5398 16.7724 17.8182 16.3896C18.1016 16.0067 18.4943 15.706 18.9964 15.4872C19.5036 15.2685 20.0952 15.1591 20.7713 15.1591C21.696 15.1591 22.4766 15.3679 23.1129 15.7855Z" fill="#626367"/>
</svg>
