<svg width="34" height="39" viewBox="0 0 34 39" fill="none" xmlns="http://www.w3.org/2000/svg">
<circle cx="17" cy="19" r="17" fill="#B2B2B2"/>
<path d="M14.9545 24.4545V24.3182C14.9697 22.8712 15.1212 21.7197 15.4091 20.8636C15.697 20.0076 16.1061 19.3144 16.6364 18.7841C17.1667 18.2538 17.803 17.7652 18.5455 17.3182C18.9924 17.0455 19.3939 16.7235 19.75 16.3523C20.1061 15.9735 20.3864 15.5379 20.5909 15.0455C20.803 14.553 20.9091 14.0076 20.9091 13.4091C20.9091 12.6667 20.7348 12.0227 20.3864 11.4773C20.0379 10.9318 19.572 10.5114 18.9886 10.2159C18.4053 9.92045 17.7576 9.77273 17.0455 9.77273C16.4242 9.77273 15.8258 9.90151 15.25 10.1591C14.6742 10.4167 14.1932 10.822 13.8068 11.375C13.4205 11.928 13.197 12.6515 13.1364 13.5455H10.2727C10.3333 12.2576 10.6667 11.1553 11.2727 10.2386C11.8864 9.32197 12.6932 8.62121 13.6932 8.13636C14.7008 7.65151 15.8182 7.40909 17.0455 7.40909C18.3788 7.40909 19.5379 7.67424 20.5227 8.20454C21.5152 8.73485 22.2803 9.46212 22.8182 10.3864C23.3636 11.3106 23.6364 12.3636 23.6364 13.5455C23.6364 14.3788 23.5076 15.1326 23.25 15.8068C23 16.4811 22.6364 17.0833 22.1591 17.6136C21.6894 18.1439 21.1212 18.6136 20.4545 19.0227C19.7879 19.4394 19.2538 19.8788 18.8523 20.3409C18.4508 20.7955 18.1591 21.3371 17.9773 21.9659C17.7955 22.5947 17.697 23.3788 17.6818 24.3182V24.4545H14.9545ZM16.4091 31.1818C15.8485 31.1818 15.3674 30.9811 14.9659 30.5795C14.5644 30.178 14.3636 29.697 14.3636 29.1364C14.3636 28.5758 14.5644 28.0947 14.9659 27.6932C15.3674 27.2917 15.8485 27.0909 16.4091 27.0909C16.9697 27.0909 17.4508 27.2917 17.8523 27.6932C18.2538 28.0947 18.4545 28.5758 18.4545 29.1364C18.4545 29.5076 18.3598 29.8485 18.1705 30.1591C17.9886 30.4697 17.7424 30.7197 17.4318 30.9091C17.1288 31.0909 16.7879 31.1818 16.4091 31.1818Z" fill="white"/>
</svg>
